<svg width="24" height="24" viewBox="0 0 24 24" fill="none" xmlns="http://www.w3.org/2000/svg">
<path d="M19.1054 3.72549C17.3362 1.98039 14.9365 1 12.4343 1C9.9322 1 7.53254 1.98039 5.76326 3.72549C3.99397 5.47059 3 7.83745 3 10.3054C3 12.7733 3.99397 15.1402 5.76326 16.8853L11.6227 22.6756C11.7261 22.7784 11.849 22.86 11.9845 22.9157C12.12 22.9713 12.2653 23 12.4121 23C12.5589 23 12.7042 22.9713 12.8397 22.9157C12.9752 22.86 13.0982 22.7784 13.2015 22.6756L19.1054 16.8305C20.8673 15.0926 21.8571 12.7356 21.8571 10.278C21.8571 7.82032 20.8673 5.46332 19.1054 3.72549ZM17.5155 15.2623L12.4343 20.2959L7.3532 15.2623C6.34936 14.2712 5.66594 13.0089 5.38934 11.6349C5.11273 10.2608 5.25535 8.8367 5.79917 7.54258C6.343 6.24846 7.2636 5.14241 8.44462 4.36426C9.62564 3.58611 11.0141 3.17078 12.4343 3.17078C13.8546 3.17078 15.243 3.58611 16.4241 4.36426C17.6051 5.14241 18.5257 6.24846 19.0695 7.54258C19.6133 8.8367 19.756 10.2608 19.4794 11.6349C19.2027 13.0089 18.5193 14.2712 17.5155 15.2623Z" fill="#718096"/>
<circle cx="12" cy="10.5" r="1.5" fill="#718096"/>
</svg>
